<?xml version="1.0" encoding="UTF-8"?>
<!DOCTYPE svg PUBLIC "-//W3C//DTD SVG 1.1//EN" "http://www.w3.org/Graphics/SVG/1.1/DTD/svg11.dtd">
<!-- Creator: CorelDRAW -->
<svg xmlns="http://www.w3.org/2000/svg" xml:space="preserve" width="300px" height="300px" version="1.1" style="shape-rendering:geometricPrecision; text-rendering:geometricPrecision; image-rendering:optimizeQuality; fill-rule:evenodd; clip-rule:evenodd"
viewBox="0 0 300 300"
 xmlns:xlink="http://www.w3.org/1999/xlink"
 xmlns:xodm="http://www.corel.com/coreldraw/odm/2003">
 <defs>
  <style type="text/css">
   <![CDATA[
    .fil0 {fill:#05CBFA}
    .fil1 {fill:#FEFEF4}
   ]]>
  </style>
 </defs>
 <g id="Camada_x0020_1">
  <metadata id="CorelCorpID_0Corel-Layer"/>
  <rect class="fil0" x="-0.001" width="300" height="300"/>
  <g id="_1704728842848">
   <g>
    <path class="fil1" d="M157.404 133.958c2.698,-1.174 6.594,1.452 8.606,2.602 3.605,2.06 4.058,0.747 7.549,-1.236 8.868,-5.04 10.578,3.103 5.555,8.45 -4.5,4.79 -10.264,6.322 -16.672,3.602 -6.508,-2.762 -9.553,-11.454 -5.038,-13.418zm37.874 -38.658c8.66,-1.652 14.439,1.166 19.17,5.144 6.515,5.48 5.612,11.381 1.435,10.709 -1.673,-0.269 -2.374,-2.015 -3.168,-3.184 -4.922,-7.255 -13.554,1.409 -9.464,7.668 0.682,1.045 2.223,2.304 3.594,2.57 2.332,0.451 3.124,-0.267 5.037,1.076 2.462,1.729 3.688,5.474 1.749,9.038 -2.569,4.721 -9.229,8.333 -17.118,7.494 -14.536,-1.545 -21.561,-18.021 -15.279,-29.746 2.778,-5.183 7.306,-9.485 14.044,-10.769zm-59.942 -0.099c14.295,-2.885 24.684,9.318 23.765,13.597 -0.373,1.736 -1.965,2.69 -3.589,2.405 -1.715,-0.302 -2.108,-1.741 -3.028,-3.116 -4.745,-7.092 -13.75,0.575 -9.443,7.625 2.431,3.977 5.562,1.372 8.676,3.641 6.675,4.865 -0.621,17.913 -15.396,16.467 -22.216,-2.175 -23.713,-36.033 -0.985,-40.619zm-11.826 59.735c1.195,0.236 5.393,2.826 8.553,3.959 12.665,4.542 22.274,3.339 35.986,3.331 18.99,-0.011 30.634,1.131 44.725,-7.251 10.43,-6.204 18.557,-16.87 20.521,-31.275 2.167,-15.899 -6.107,-29.592 -13.883,-37.284 -8.206,-8.116 -19.232,-15.134 -33.302,-18.464 -47.531,-11.249 -95.445,24.835 -82.248,64.494 0.531,1.594 0.995,2.964 1.678,4.476 0.344,0.761 2.06,3.711 2.195,4.331 0.275,1.259 -1.681,2.61 -2.498,3.614 -1.127,1.383 -1.9,2.592 -2.655,3.843 -3.312,5.482 -5.765,12.238 -5.987,20.217 -0.442,15.898 6.482,29.17 14.756,37.146 8.127,7.833 20.484,15.275 36.42,15.447 4.789,0.052 35.04,-0.516 38.092,0.55 4.094,1.429 3.291,3.952 5.537,7.537 3.52,5.622 13.161,6.32 17.004,0.319 4.392,-6.858 0.708,-14.27 -3.633,-18.425 -4.126,-3.948 -10.192,-7.41 -18.25,-7.493 -8.677,-0.088 -17.396,-0.061 -26.076,-0.026 -14.85,0.061 -28.908,0.887 -39.173,-12.548 -3.83,-5.013 -6.636,-11.143 -6.365,-19.261 0.229,-6.898 3.539,-13.495 8.603,-17.237z"/>
    <path class="fil1" d="M187.241 174.062l-45.626 0.005c-5.661,0.001 -12.672,1.09 -12.676,8.622 -0.006,10.947 13.363,9.3 22.815,9.274l38.384 0.042c13.489,0.017 28.017,-3.283 38.295,-8.327 8.221,-4.034 24.667,-12.513 21.057,-24.825 -2.103,-7.175 -9.434,-9.53 -14.633,-7.456 -3.262,1.302 -4.326,2.974 -6.035,5.512 -5.581,8.29 -9.705,11.611 -20.023,15.13 -7.033,2.399 -13.429,2.031 -21.558,2.023z"/>
   </g>
   <path class="fil1" d="M120.429 212.571l0 -19.71c-2.636,1.118 -5.525,1.777 -8.469,1.875 -8.118,0.27 -14.248,-2.536 -19.261,-6.366 -13.435,-10.264 -12.609,-24.322 -12.548,-39.172 0.035,-8.68 0.062,-17.399 -0.026,-26.077 -0.083,-8.057 -3.545,-14.124 -7.493,-18.249 -4.155,-4.341 -11.567,-8.025 -18.425,-3.633 -6.001,3.843 -5.303,13.484 0.318,17.004 3.587,2.246 6.109,1.443 7.538,5.538 1.065,3.051 0.499,33.302 0.55,38.091 0.172,15.936 7.614,28.293 15.447,36.42 7.976,8.274 21.248,15.197 37.146,14.756 1.804,-0.051 3.545,-0.215 5.223,-0.477z"/>
  </g>
 </g>
</svg>
